HIERARCHY
ROOT Hips
{
	OFFSET 0.000000 88.474243 0.000000
	CHANNELS 6 Xposition Yposition Zposition Xrotation Yrotation Zrotation 
	JOINT Spine
	{
		OFFSET 0.005100 8.711998 -0.691000
		CHANNELS 3 Xrotation Yrotation Zrotation
		JOINT Spine1
		{
			OFFSET -0.000967 6.170934 -1.044000
			CHANNELS 3 Xrotation Yrotation Zrotation
			JOINT Spine1_split
			{
				OFFSET -0.000967 6.170934 -1.044000
				CHANNELS 3 Xrotation Yrotation Zrotation
				JOINT Spine2
				{
					OFFSET -0.000967 6.170934 -1.044000
					CHANNELS 3 Xrotation Yrotation Zrotation
					JOINT Neck
					{
						OFFSET 0.016300 11.420799 -0.263300
						CHANNELS 3 Xrotation Yrotation Zrotation
						JOINT Head
						{
							OFFSET -0.019200 9.262405 2.362500
							CHANNELS 3 Xrotation Yrotation Zrotation
							JOINT HeadTop_End
							{
								OFFSET -0.003300 20.641708 4.374200
								CHANNELS 3 Xrotation Yrotation Zrotation
								End Site
								{
									OFFSET 0.000000 0.000000 0.000000
								}
							}
							JOINT RightEye
							{
								OFFSET -4.115500 7.286606 7.915800
								CHANNELS 3 Xrotation Yrotation Zrotation
								End Site
								{
									OFFSET 0.000000 0.000000 0.000000
								}
							}
							JOINT LeftEye
							{
								OFFSET 4.109900 7.286499 7.915800
								CHANNELS 3 Xrotation Yrotation Zrotation
								End Site
								{
									OFFSET 0.000000 0.000000 0.000000
								}
							}
						}
					}
					JOINT LeftShoulder
					{
						OFFSET 2.808450 3.366100 -0.172850
						CHANNELS 3 Xrotation Yrotation Zrotation
						JOINT LeftShoulder_split
						{
							OFFSET 2.808450 3.366100 -0.172850
							CHANNELS 3 Xrotation Yrotation Zrotation
							JOINT LeftArm
							{
								OFFSET 10.664888 -0.183372 -2.440700
								CHANNELS 3 Xrotation Yrotation Zrotation
								JOINT LeftForeArm
								{
									OFFSET 27.459126 0.000000 0.000000
									CHANNELS 3 Xrotation Yrotation Zrotation
									JOINT LeftHand
									{
										OFFSET 21.306858 0.000000 0.000000
										CHANNELS 3 Xrotation Yrotation Zrotation
										JOINT LeftHandMiddle1
										{
											OFFSET 9.885994 0.000000 0.000000
											CHANNELS 3 Xrotation Yrotation Zrotation
											JOINT LeftHandMiddle2
											{
												OFFSET 2.657257 0.000000 0.000000
												CHANNELS 3 Xrotation Yrotation Zrotation
												JOINT LeftHandMiddle3
												{
													OFFSET 2.553986 0.000000 0.000000
													CHANNELS 3 Xrotation Yrotation Zrotation
													JOINT LeftHandMiddle4
													{
														OFFSET 2.835144 0.000000 0.000000
														CHANNELS 3 Xrotation Yrotation Zrotation
														End Site
														{
															OFFSET 0.000000 0.000000 0.000000
														}
													}
												}
											}
										}
										JOINT LeftHandThumb1
										{
											OFFSET 3.169678 -1.462761 2.479728
											CHANNELS 3 Xrotation Yrotation Zrotation
											JOINT LeftHandThumb2
											{
												OFFSET 2.886429 -1.666481 1.666480
												CHANNELS 3 Xrotation Yrotation Zrotation
												JOINT LeftHandThumb3
												{
													OFFSET 2.508606 -1.448341 1.448345
													CHANNELS 3 Xrotation Yrotation Zrotation
													JOINT LeftHandThumb4
													{
														OFFSET 1.840363 -1.062538 1.062534
														CHANNELS 3 Xrotation Yrotation Zrotation
														End Site
														{
															OFFSET 0.000000 0.000000 0.000000
														}
													}
												}
											}
										}
										JOINT LeftHandIndex1
										{
											OFFSET 9.671494 -0.187355 2.378996
											CHANNELS 3 Xrotation Yrotation Zrotation
											JOINT LeftHandIndex2
											{
												OFFSET 2.763512 0.000000 0.000000
												CHANNELS 3 Xrotation Yrotation Zrotation
												JOINT LeftHandIndex3
												{
													OFFSET 2.609634 0.000000 0.000000
													CHANNELS 3 Xrotation Yrotation Zrotation
													JOINT LeftHandIndex4
													{
														OFFSET 2.328438 0.000000 0.000000
														CHANNELS 3 Xrotation Yrotation Zrotation
														End Site
														{
															OFFSET 0.000000 0.000000 0.000000
														}
													}
												}
											}
										}
										JOINT LeftHandRing1
										{
											OFFSET 9.403130 0.021294 -1.980828
											CHANNELS 3 Xrotation Yrotation Zrotation
											JOINT LeftHandRing2
											{
												OFFSET 2.465874 0.000000 0.000000
												CHANNELS 3 Xrotation Yrotation Zrotation
												JOINT LeftHandRing3
												{
													OFFSET 2.379852 0.000000 0.000000
													CHANNELS 3 Xrotation Yrotation Zrotation
													JOINT LeftHandRing4
													{
														OFFSET 2.663132 0.000000 0.000000
														CHANNELS 3 Xrotation Yrotation Zrotation
														End Site
														{
															OFFSET 0.000000 0.000000 0.000000
														}
													}
												}
											}
										}
										JOINT LeftHandPinky1
										{
											OFFSET 8.575966 -0.190437 -4.050817
											CHANNELS 3 Xrotation Yrotation Zrotation
											JOINT LeftHandPinky2
											{
												OFFSET 2.646774 0.000000 0.000000
												CHANNELS 3 Xrotation Yrotation Zrotation
												JOINT LeftHandPinky3
												{
													OFFSET 1.606773 0.000000 0.000000
													CHANNELS 3 Xrotation Yrotation Zrotation
													JOINT LeftHandPinky4
													{
														OFFSET 2.007980 0.000000 0.000000
														CHANNELS 3 Xrotation Yrotation Zrotation
														End Site
														{
															OFFSET 0.000000 0.000000 0.000000
														}
													}
												}
											}
										}
									}
								}
							}
						}
					}
					JOINT RightShoulder
					{
						OFFSET -2.790150 3.368752 -0.172200
						CHANNELS 3 Xrotation Yrotation Zrotation
						JOINT RightShoulder_split
						{
							OFFSET -2.790150 3.368752 -0.172200
							CHANNELS 3 Xrotation Yrotation Zrotation
							JOINT RightArm
							{
								OFFSET -10.679335 -0.188484 -2.383900
								CHANNELS 3 Xrotation Yrotation Zrotation
								JOINT RightForeArm
								{
									OFFSET -27.503529 0.000000 0.000000
									CHANNELS 3 Xrotation Yrotation Zrotation
									JOINT RightHand
									{
										OFFSET -21.306808 0.000000 0.000000
										CHANNELS 3 Xrotation Yrotation Zrotation
										JOINT RightHandMiddle1
										{
											OFFSET -9.885529 0.000000 0.000000
											CHANNELS 3 Xrotation Yrotation Zrotation
											JOINT RightHandMiddle2
											{
												OFFSET -2.656517 0.000000 0.000000
												CHANNELS 3 Xrotation Yrotation Zrotation
												JOINT RightHandMiddle3
												{
													OFFSET -2.553825 0.000000 0.000000
													CHANNELS 3 Xrotation Yrotation Zrotation
													JOINT RightHandMiddle4
													{
														OFFSET -2.835022 0.000000 0.000000
														CHANNELS 3 Xrotation Yrotation Zrotation
														End Site
														{
															OFFSET 0.000000 0.000000 0.000000
														}
													}
												}
											}
										}
										JOINT RightHandThumb1
										{
											OFFSET -3.169418 -1.461960 2.481918
											CHANNELS 3 Xrotation Yrotation Zrotation
											JOINT RightHandThumb2
											{
												OFFSET -2.887390 -1.667038 1.667035
												CHANNELS 3 Xrotation Yrotation Zrotation
												JOINT RightHandThumb3
												{
													OFFSET -2.508553 -1.448311 1.448312
													CHANNELS 3 Xrotation Yrotation Zrotation
													JOINT RightHandThumb4
													{
														OFFSET -1.838402 -1.061401 1.061401
														CHANNELS 3 Xrotation Yrotation Zrotation
														End Site
														{
															OFFSET 0.000000 0.000000 0.000000
														}
													}
												}
											}
										}
										JOINT RightHandIndex1
										{
											OFFSET -9.673798 -0.186302 2.383026
											CHANNELS 3 Xrotation Yrotation Zrotation
											JOINT RightHandIndex2
											{
												OFFSET -2.761208 0.000000 0.000000
												CHANNELS 3 Xrotation Yrotation Zrotation
												JOINT RightHandIndex3
												{
													OFFSET -2.607552 0.000000 0.000000
													CHANNELS 3 Xrotation Yrotation Zrotation
													JOINT RightHandIndex4
													{
														OFFSET -2.323059 0.000000 0.000000
														CHANNELS 3 Xrotation Yrotation Zrotation
														End Site
														{
															OFFSET 0.000000 0.000000 0.000000
														}
													}
												}
											}
										}
										JOINT RightHandRing1
										{
											OFFSET -9.400520 0.021515 -1.981539
											CHANNELS 3 Xrotation Yrotation Zrotation
											JOINT RightHandRing2
											{
												OFFSET -2.466286 0.000000 0.000000
												CHANNELS 3 Xrotation Yrotation Zrotation
												JOINT RightHandRing3
												{
													OFFSET -2.381020 0.000000 0.000000
													CHANNELS 3 Xrotation Yrotation Zrotation
													JOINT RightHandRing4
													{
														OFFSET -2.665558 0.000000 0.000000
														CHANNELS 3 Xrotation Yrotation Zrotation
														End Site
														{
															OFFSET 0.000000 0.000000 0.000000
														}
													}
												}
											}
										}
										JOINT RightHandPinky1
										{
											OFFSET -8.576805 -0.189667 -4.048449
											CHANNELS 3 Xrotation Yrotation Zrotation
											JOINT RightHandPinky2
											{
												OFFSET -2.646317 0.000000 0.000000
												CHANNELS 3 Xrotation Yrotation Zrotation
												JOINT RightHandPinky3
												{
													OFFSET -1.609322 0.000000 0.000000
													CHANNELS 3 Xrotation Yrotation Zrotation
													JOINT RightHandPinky4
													{
														OFFSET -2.009491 0.000000 0.000000
														CHANNELS 3 Xrotation Yrotation Zrotation
														End Site
														{
															OFFSET 0.000000 0.000000 0.000000
														}
													}
												}
											}
										}
									}
								}
							}
						}
					}
				}
			}
		}
	}
	JOINT LeftUpLeg
	{
		OFFSET 6.857700 -6.739601 0.312100
		CHANNELS 3 Xrotation Yrotation Zrotation
		JOINT LeftLeg
		{
			OFFSET -0.367590 -34.731552 -4.572400
			CHANNELS 3 Xrotation Yrotation Zrotation
			JOINT LeftFoot
			{
				OFFSET 0.367590 -34.656704 -6.067400
				CHANNELS 3 Xrotation Yrotation Zrotation
				JOINT LeftToeBase
				{
					OFFSET -0.556800 -11.119200 8.871500
					CHANNELS 3 Xrotation Yrotation Zrotation
					JOINT LeftToe_End
					{
						OFFSET -0.133500 0.333600 9.201300
						CHANNELS 3 Xrotation Yrotation Zrotation
						End Site
						{
							OFFSET 0.000000 0.000000 0.000000
						}
					}
				}
			}
		}
	}
	JOINT RightUpLeg
	{
		OFFSET -6.876100 -6.733299 0.301000
		CHANNELS 3 Xrotation Yrotation Zrotation
		JOINT RightLeg
		{
			OFFSET 0.347353 -34.795158 -4.515900
			CHANNELS 3 Xrotation Yrotation Zrotation
			JOINT RightFoot
			{
				OFFSET -0.347353 -34.589367 -6.070300
				CHANNELS 3 Xrotation Yrotation Zrotation
				JOINT RightToeBase
				{
					OFFSET 0.591100 -11.123700 8.856300
					CHANNELS 3 Xrotation Yrotation Zrotation
					JOINT RightToe_End
					{
						OFFSET 0.176400 0.322500 9.196700
						CHANNELS 3 Xrotation Yrotation Zrotation
						End Site
						{
							OFFSET 0.000000 0.000000 0.000000
						}
					}
				}
			}
		}
	}
}
MOTION
Frames: 4
Frame Time: 0.016667
0.072946 88.495064 -0.575369 -3.752947 -5.220836 -3.662163 3.299272 1.539623 2.634889 1.151890 0.339457 1.552798 0.000000 0.000000 0.000000 1.126015 0.361543 1.555886 5.626311 -0.078963 0.454682 -7.563347 1.375724 -0.080566 0.000000 -0.000000 -0.000000 0.000000 -0.000000 -0.000000 0.000000 -0.000000 -0.000000 1.049450 -17.442073 -12.319429 0.000000 0.000000 0.000000 3.916256 -19.989247 -69.765226 0.000004 -1.459365 -0.000001 -33.230417 -1.364819 -6.186638 -0.076314 2.665774 -15.696821 0.268784 1.755805 -17.405526 0.300523 1.853980 -18.413336 -0.000000 0.000000 0.000002 -0.663002 2.160315 4.832518 11.853594 25.421594 17.058298 -13.813963 3.537252 9.036009 0.000001 -0.000001 -0.000001 0.019864 -0.969584 -7.593529 0.267871 1.752892 -17.375720 0.057681 0.820954 -8.038014 0.000002 0.000000 -0.000001 0.136909 3.641770 -21.133503 0.386623 2.094788 -20.911918 0.283039 1.800636 -17.864995 -0.000000 -0.000001 0.000001 0.927728 5.555929 -27.128045 0.268794 1.755840 -17.405880 0.241910 1.667697 -16.505886 0.000002 0.000002 -0.000000 1.203181 15.343655 14.705968 0.000000 0.000000 0.000000 13.158857 27.555128 58.785157 -0.000004 6.693741 0.000013 -20.179097 -0.514101 6.782796 -0.136227 -2.205106 14.998873 0.214451 -1.398346 17.436886 0.239778 -1.476534 18.446258 -0.000000 0.000002 0.000005 -1.665247 -0.174477 -4.219029 12.710884 -29.825360 -16.130988 -15.549419 -3.559387 -12.707116 0.000003 0.000002 0.000000 0.038556 1.262294 6.823707 0.213718 -1.396035 17.407029 0.046036 -0.653843 8.053231 0.000004 0.000000 0.000001 0.030610 -3.075758 20.450987 0.308442 -1.668280 20.948530 0.225817 -1.434045 17.897088 0.000001 -0.000001 -0.000004 0.748883 -4.885231 26.473753 0.214463 -1.398381 17.437249 0.193011 -1.328185 16.535818 -0.000002 -0.000003 0.000000 -17.945774 13.023078 12.284063 12.433483 2.146267 4.218086 8.185120 0.143999 -7.260932 -4.928526 0.000007 0.000002 -0.000000 -0.000000 0.000000 -6.239690 -10.562343 1.859716 7.218169 -9.702082 -3.266675 3.143102 -1.417840 2.338681 -7.282878 -0.000005 -0.000001 -0.000001 0.000002 0.000000 
0.074706 88.486557 -0.546355 -3.730946 -5.223058 -3.657535 3.296820 1.538207 2.633526 1.148651 0.336951 1.557619 0.000000 0.000000 0.000000 1.122786 0.358981 1.560655 5.638156 -0.070055 0.457730 -7.484059 1.421189 -0.059011 0.000000 -0.000000 0.000000 0.000000 -0.000000 0.000000 0.000000 -0.000000 0.000000 1.048915 -17.433184 -12.321699 0.000000 0.000000 0.000000 3.910868 -20.038199 -69.718814 0.000008 -1.475457 -0.000003 -33.230595 -1.357314 -6.199833 -0.110432 2.550982 -15.776825 0.270247 1.760461 -17.453167 0.302082 1.858649 -18.461390 -0.000001 -0.000000 -0.000002 -0.567486 2.283183 4.736488 11.881270 25.474855 17.041267 -13.739960 3.788769 9.117118 0.000001 0.000001 -0.000002 0.029786 -0.939001 -7.694974 0.271836 1.765514 -17.504959 0.059547 0.834062 -8.167227 0.000001 -0.000001 0.000000 0.171070 3.724279 -20.977510 0.377081 2.069663 -20.649299 0.274724 1.774632 -17.598332 -0.000000 -0.000000 -0.000003 0.989026 5.669033 -27.614134 0.289119 1.819375 -18.057405 0.260991 1.730769 -17.149449 0.000001 0.000002 -0.000002 1.202809 15.330346 14.708225 0.000000 0.000000 0.000000 13.159664 27.578841 58.769017 0.000008 6.690714 0.000024 -20.182434 -0.509619 6.754874 -0.119818 -2.299154 15.383449 0.218315 -1.410588 17.594583 0.243857 -1.488721 18.604192 0.000001 0.000003 0.000002 -1.597735 -0.258951 -4.022353 12.785583 -29.961964 -16.115379 -15.522238 -3.800327 -12.746853 0.000001 0.000001 -0.000003 0.006943 1.238480 7.289323 0.227136 -1.438108 17.949587 0.052423 -0.697537 8.595340 -0.000002 -0.000000 0.000000 0.050833 -3.146520 20.845794 0.314534 -1.684090 21.156660 0.231062 -1.450184 18.105477 -0.000000 0.000001 -0.000002 0.765356 -4.915792 27.024081 0.223539 -1.426960 17.805603 0.201636 -1.356910 16.904156 0.000001 0.000002 -0.000001 -17.992221 13.025152 12.292742 12.531675 2.136507 4.214018 8.088723 0.144173 -7.259250 -4.907201 -0.000005 0.000000 0.000001 0.000001 0.000000 -6.316089 -10.554725 1.837657 7.366147 -9.709455 -3.262429 3.051272 -1.410414 2.361139 -7.299122 -0.000006 -0.000002 0.000001 0.000000 0.000000 
0.077023 88.474030 -0.513983 -3.711299 -5.224603 -3.654462 3.293691 1.535771 2.632097 1.144318 0.332717 1.563064 0.000000 0.000000 0.000000 1.118465 0.354681 1.566027 5.663786 -0.052053 0.465583 -7.344643 1.507707 0.003605 -0.000000 -0.000000 0.000000 -0.000000 -0.000000 0.000000 -0.000000 -0.000000 0.000000 1.048250 -17.426497 -12.325185 0.000000 0.000000 0.000000 3.885163 -20.122661 -69.621375 -0.000010 -1.510670 -0.000016 -33.236718 -1.352780 -6.206736 -0.159188 2.393517 -15.934741 0.278144 1.785379 -17.708538 0.310443 1.883509 -18.717599 -0.000000 0.000000 0.000002 -0.413257 2.421970 4.596498 11.884038 25.479034 17.037717 -13.556160 4.423564 9.322898 -0.000000 -0.000001 -0.000002 0.004573 -0.941860 -7.945333 0.283976 1.803528 -17.894717 0.065346 0.873524 -8.556504 -0.000000 0.000000 -0.000004 0.217400 3.851050 -21.158953 0.393627 2.113014 -21.102651 0.288877 1.818634 -18.049839 -0.000001 0.000001 0.000001 1.071971 5.799895 -28.734927 0.380082 2.077608 -20.732320 0.347648 1.989858 -19.818306 0.000001 0.000001 -0.000000 1.202236 15.312758 14.711719 0.000000 0.000000 0.000000 13.154563 27.593601 58.758738 0.000001 6.683104 -0.000001 -20.169619 -0.502456 6.709189 -0.113340 -2.378509 16.079179 0.226863 -1.437303 17.939184 0.252890 -1.515284 18.948842 -0.000001 0.000002 -0.000001 -1.458888 -0.386675 -3.615251 12.869353 -30.114823 -16.097841 -15.426909 -4.482940 -12.869621 -0.000000 -0.000002 -0.000003 -0.059652 1.222144 8.118784 0.246665 -1.497018 18.711856 0.062090 -0.758801 9.356862 -0.000000 0.000002 0.000001 0.077772 -3.243741 21.538571 0.327693 -1.717693 21.600026 0.242451 -1.484552 18.550276 0.000002 -0.000000 -0.000003 0.804719 -4.984238 27.963114 0.243804 -1.488556 18.601996 0.220925 -1.418811 17.700527 0.000000 -0.000002 0.000001 -18.058516 13.029174 12.310598 12.677681 2.120303 4.206224 7.959551 0.143498 -7.251469 -4.880819 -0.000007 0.000003 0.000000 0.000000 -0.000000 -6.418545 -10.547408 1.809732 7.577309 -9.711383 -3.256149 2.925607 -1.405215 2.389939 -7.313239 -0.000009 0.000000 -0.000000 -0.000000 0.000000 
0.079732 88.457771 -0.478413 -3.694970 -5.225627 -3.653821 3.290045 1.532431 2.630878 1.139269 0.326954 1.568951 0.000000 0.000000 0.000000 1.113434 0.348846 1.571822 5.703898 -0.023076 0.478979 -7.143601 1.642615 0.115493 -0.000000 0.000000 0.000000 -0.000000 0.000000 0.000000 -0.000000 0.000000 0.000000 1.047536 -17.420968 -12.329177 0.000000 0.000000 0.000000 3.843407 -20.236570 -69.481643 -0.000003 -1.562792 0.000023 -33.248664 -1.347627 -6.210169 -0.193180 2.296547 -16.142556 0.291663 1.827164 -18.137460 0.324726 1.925115 -19.147288 -0.000001 -0.000003 -0.000001 -0.220069 2.555905 4.414063 11.862736 25.435891 17.047382 -13.284224 5.382041 9.628685 -0.000002 0.000001 -0.000001 -0.049250 -0.983287 -8.313037 0.302226 1.859080 -18.465876 0.074332 0.931261 -9.126857 0.000001 0.000000 -0.000000 0.266291 3.988768 -21.591770 0.435722 2.218943 -22.216461 0.325313 1.926788 -19.164710 -0.000000 0.000001 0.000001 1.161013 5.919587 -30.266269 0.561007 2.503607 -25.256576 0.521627 2.418451 -24.339557 0.000001 0.000002 -0.000001 1.201657 15.295066 14.715274 0.000000 0.000000 0.000000 13.144591 27.596809 58.755767 -0.000009 6.673311 -0.000018 -20.141005 -0.489748 6.650394 -0.116270 -2.442596 17.042978 0.239024 -1.474278 18.417287 0.265683 -1.552033 19.426694 -0.000001 0.000003 -0.000001 -1.262219 -0.544835 -3.030698 12.961110 -30.281698 -16.078465 -15.284966 -5.524587 -13.057138 0.000001 0.000002 0.000000 -0.157190 1.208667 9.262395 0.273896 -1.575135 19.728064 0.076265 -0.840266 10.372158 -0.000001 0.000000 -0.000001 0.109739 -3.358617 22.518878 0.348648 -1.769680 22.288748 0.260679 -1.537784 19.241370 0.000003 0.000000 -0.000002 0.865231 -5.083878 29.339580 0.279237 -1.589913 19.921053 0.254756 -1.520718 19.019464 -0.000001 0.000001 0.000001 -18.142056 13.035302 12.338163 12.867619 2.098044 4.195027 7.800201 0.142007 -7.238218 -4.849862 0.000007 0.000002 0.000000 -0.000000 -0.000000 -6.540916 -10.540180 1.777931 7.841701 -9.708346 -3.247872 2.770934 -1.401826 2.423968 -7.326147 0.000005 -0.000001 0.000001 -0.000000 0.000000 
